# xmcd
#
# Track frame offsets:
#	150
#	17704
#	34507
#	67644
#	92831
#	114656
#	140952
#	167500
#	192059
#	206557
#	226618
#	252586
#	280322
#	301975
#
# Disc length: 4284 seconds
#
# Revision: 1
# Processed by: cddbd v1.4PL0 Copyright (c) Steve Scherf et al.
# Submitted via: audiograbber 1.80
#
DISCID=b910ba0e
DTITLE=Various Artist - Sexy #4
DYEAR=1900
DGENRE=
TTITLE0=Grand Tourism - Les Courants D' air
TTITLE1=Coppe - VAD
TTITLE2=Bally Sagoo - Aaj Phir Jeene Ki (instrumental)
TTITLE3=Ivory Club - Taj'
TTITLE4=Mato vs 26 Pinel - Lejos de Aqui
TTITLE5=Time Passing - Bossample
TTITLE6=AIM - From a seaside town
TTITLE7=Miyazawa - Anjos Irmaos (Rianer Truby Trio Remix)
TTITLE8=Danielle Luppi - Je T' adore (Remix)
TTITLE9=Montefiori Cocktail - La segretaria
TTITLE10=Mario de bellis - I like it
TTITLE11=Paris All stars - Voulez vous
TTITLE12=Andrej 747 - Playin'
TTITLE13=I wanna Jazz - Y wanna fuck (Erotic Version)
EXTD=
EXTT0=
EXTT1=
EXTT2=
EXTT3=
EXTT4=
EXTT5=
EXTT6=
EXTT7=
EXTT8=
EXTT9=
EXTT10=
EXTT11=
EXTT12=
EXTT13=
PLAYORDER=
